HIERARCHY
ROOT Hips
{
	OFFSET 0.00000 0.00000 0.00000
	CHANNELS 6 Xposition Yposition Zposition Zrotation Yrotation Xrotation 
	JOINT LHipJoint
	{
		OFFSET 0 0 0
		CHANNELS 3 Zrotation Yrotation Xrotation
		JOINT LeftHip
		{
			OFFSET 1.62964 -1.40469 0.78906
			CHANNELS 3 Zrotation Yrotation Xrotation
			JOINT LeftKnee
			{
				OFFSET 2.29640 -6.30932 0.00000
				CHANNELS 3 Zrotation Yrotation Xrotation
				JOINT LeftAnkle
				{
					OFFSET 2.29451 -6.30412 0.00000
					CHANNELS 3 Zrotation Yrotation Xrotation
					JOINT LeftToe
					{
						OFFSET 0.03611 -0.09921 1.56387
						CHANNELS 3 Zrotation Yrotation Xrotation
						End Site
						{
							OFFSET 0.00000 -0.00000 0.80291
						}
					}
				}
			}
		}
	}
	JOINT RHipJoint
	{
		OFFSET 0 0 0
		CHANNELS 3 Zrotation Yrotation Xrotation
		JOINT RightHip
		{
			OFFSET -1.73712 -1.40469 0.78906
			CHANNELS 3 Zrotation Yrotation Xrotation
			JOINT RightKnee
			{
				OFFSET -2.28137 -6.26801 0.00000
				CHANNELS 3 Zrotation Yrotation Xrotation
				JOINT RightAnkle
				{
					OFFSET -2.28681 -6.28298 0.00000
					CHANNELS 3 Zrotation Yrotation Xrotation
					JOINT RightToe
					{
						OFFSET -0.15927 -0.43759 1.61103
						CHANNELS 3 Zrotation Yrotation Xrotation
						End Site
						{
							OFFSET -0.00000 -0.00000 0.84630
						}
					}
				}
			}
		}
	}
	JOINT lowerback
	{
		OFFSET 0 0 0
		CHANNELS 3 Zrotation Yrotation Xrotation
		JOINT Chest
		{
			OFFSET -0.04227 2.04338 -0.00225
			CHANNELS 3 Zrotation Yrotation Xrotation
			JOINT Chest2
			{
				OFFSET -0.02148 2.04482 -0.04273
				CHANNELS 3 Zrotation Yrotation Xrotation
				JOINT lowerneck
				{
					OFFSET 0 0 0
					CHANNELS 3 Zrotation Yrotation Xrotation
					JOINT Neck
					{
						OFFSET 0.09180 1.44629 0.19359
						CHANNELS 3 Zrotation Yrotation Xrotation
						JOINT Head
						{
							OFFSET 0.00887 1.40645 0.14750
							CHANNELS 3 Zrotation Yrotation Xrotation
							End Site
							{
								OFFSET -0.00669 1.50671 0.03707
							}
						}
					}
				}
				JOINT LeftCollar
				{
					OFFSET 0 0 0
					CHANNELS 3 Zrotation Yrotation Xrotation
					JOINT LeftShoulder
					{
						OFFSET 2.17674 1.86763 -0.06520
CHANNELS 3 Zrotation Xrotation Yrotation
						JOINT LeftElbow
						{
OFFSET 0 -4.657760 0.000000
CHANNELS 3 Zrotation Xrotation Yrotation
							JOINT LeftWrist
							{
OFFSET 0 -3.555390 0.000000
CHANNELS 3 Zrotation Xrotation Yrotation
								JOINT lhand
								{
									OFFSET 0 0 0
CHANNELS 3 Zrotation Xrotation Yrotation
									JOINT LFingers
									{
OFFSET 0 -0.707260 0.000000
CHANNELS 3 Zrotation Xrotation Yrotation
										End Site
										{
OFFSET 0 -0.570220 0.000000
										}
									}
								}
								JOINT LThumb
								{
OFFSET 0 0.000000 0.000000
CHANNELS 3 Zrotation Xrotation Yrotation
									End Site
									{
OFFSET 0 -0.578920 0.578920
									}
								}
							}
						}
					}
				}
				JOINT RightCollar
				{
					OFFSET 0 0 0
					CHANNELS 3 Zrotation Yrotation Xrotation
					JOINT RightShoulder
					{
						OFFSET -2.80694 1.55459 -0.32496
CHANNELS 3 Zrotation Xrotation Yrotation
						JOINT RightElbow
						{
OFFSET 0 -4.719250 -0.000000
CHANNELS 3 Zrotation Xrotation Yrotation
							JOINT RightWrist
							{
OFFSET 0 -3.569900 0.000000
CHANNELS 3 Zrotation Xrotation Yrotation
								JOINT rhand
								{
									OFFSET 0 0 0
CHANNELS 3 Zrotation Xrotation Yrotation
									JOINT RFingers
									{
OFFSET 0 -0.507760 0.000000
CHANNELS 3 Zrotation Xrotation Yrotation
										End Site
										{
OFFSET 0 -0.409370 0.000000
										}
									}
								}
								JOINT RThumb
								{
OFFSET 0 0.000000 0.000000
CHANNELS 3 Zrotation Xrotation Yrotation
									End Site
									{
OFFSET 0 -0.415620 0.415620
									}
								}
							}
						}
					}
				}
			}
		}
	}
}
MOTION
Frames: 12
Frame Time: 0.008333333333333333
14.340287 16.729026 13.559235 177.700337 7.412629 -160.624551 0.000000 0.000000 0.000000 -5.376120 -16.326368 -41.771159 1.413031 7.517549 21.258375 -0.015372 7.614926 4.971953 5.982024 -14.410889 -44.909636 0.000000 0.000000 0.000000 9.761375 9.078223 -2.412059 -6.139722 -14.562418 45.540048 -3.964114 22.310264 -37.199204 -2.789421 10.346141 -30.104934 -0.696302 -0.725310 -28.501160 1.940637 -0.762390 1.093821 2.248162 -0.368804 16.543065 0.104202 -0.142806 0.445640 -0.735061 1.687465 20.852233 -0.091063 1.443890 6.249781 0.000000 0.000000 0.000000 8.898947 14.161652 -13.991831 14.896845 -24.002053 3.183996 19.577228 -5.392397 10.664822 0.000000 0.000000 0.000000 -7.125000 0.000000 0.000000 -5.284964 18.704028 -3.325234 0.000000 0.000000 0.000000 -9.546373 10.641624 17.272960 -43.759106 -50.145822 -21.281818 -14.655543 0.205343 56.083523 0.000000 0.000000 0.000000 7.125000 0.000000 0.000000 79.156146 77.281890 -66.099192
14.288441 16.682935 13.468838 177.859209 7.210839 -160.348723 0.000000 0.000000 0.000000 -5.560966 -16.277813 -42.410939 1.564854 7.891628 22.386580 -0.037547 6.557644 3.526059 6.047245 -14.473953 -45.171063 0.000000 0.000000 0.000000 9.677208 9.192011 -2.504913 -6.259471 -14.674970 46.013994 -3.819676 22.619727 -36.634154 -2.801072 10.365915 -30.169970 -0.988953 -0.866952 -27.954639 2.054661 -0.864897 0.945428 2.493126 -0.437688 16.113138 0.116044 -0.230569 0.450830 -0.697023 1.556801 20.852387 -0.087863 1.383397 6.247868 0.000000 0.000000 0.000000 8.844632 13.894700 -13.866471 14.435464 -23.352970 2.999105 19.692433 -4.763335 10.598289 0.000000 0.000000 0.000000 -7.125000 0.000000 0.000000 -5.202529 18.765374 -3.265857 0.000000 0.000000 0.000000 -9.556207 10.805954 17.230369 -44.067238 -50.303085 -21.518654 -11.689639 -2.216827 55.516432 0.000000 0.000000 0.000000 7.125000 0.000000 0.000000 76.969103 76.131234 -62.696964
14.236467 16.642080 13.386448 178.022496 6.937720 -159.982820 0.000000 0.000000 0.000000 -5.649942 -16.344730 -43.247093 1.740122 8.298714 23.627282 -0.046586 5.763798 2.463485 5.908184 -14.337959 -44.610687 0.000000 0.000000 0.000000 9.630657 9.367918 -2.849109 -6.434869 -14.836259 46.701831 -3.713128 22.959902 -36.242926 -2.696447 10.185508 -29.580714 -1.291174 -1.042401 -27.448671 2.203163 -1.017349 0.810111 2.763198 -0.530114 15.724774 0.042824 -0.346436 0.502405 -0.616098 1.352848 20.657314 -0.062978 1.274262 6.174886 0.000000 0.000000 0.000000 8.720959 13.498099 -13.571136 13.954232 -22.668011 2.811220 19.781018 -3.970216 10.632858 0.000000 0.000000 0.000000 -7.125000 0.000000 0.000000 -5.140467 18.722295 -3.231482 0.000000 0.000000 0.000000 -9.610735 10.878395 17.211672 -44.326090 -50.433903 -21.718055 -14.175642 0.470983 56.909375 0.000000 0.000000 0.000000 7.125000 0.000000 0.000000 83.196345 77.057519 -69.878380
14.184672 16.606782 13.304752 178.183508 6.582830 -159.599800 0.000000 0.000000 0.000000 -5.697036 -16.542439 -44.065979 1.913918 8.681284 24.805366 -0.048038 5.052937 1.567750 5.791521 -14.223076 -44.138938 0.000000 0.000000 0.000000 9.583576 9.349737 -3.026577 -6.495932 -14.892311 46.941115 -3.550219 23.313573 -35.607229 -2.529102 9.888162 -28.617564 -1.524919 -1.202187 -27.157047 2.321421 -1.181073 0.828073 2.959171 -0.629324 15.622669 -0.059816 -0.493892 0.465182 -0.463822 1.078941 20.421005 -0.014218 1.127633 6.103635 0.000000 0.000000 0.000000 8.635031 12.914145 -13.266316 13.569228 -22.114857 2.664153 19.836797 -3.192976 10.684803 0.000000 0.000000 0.000000 -7.125000 0.000000 0.000000 -5.101858 18.663296 -3.213707 0.000000 0.000000 0.000000 -9.564620 10.633912 17.137874 -44.364700 -50.453441 -21.747782 -14.553653 1.127637 57.114330 0.000000 0.000000 0.000000 7.125000 0.000000 0.000000 83.842482 77.242561 -70.693278
14.133462 16.577096 13.220802 178.297466 6.190334 -159.255022 0.000000 0.000000 0.000000 -5.774428 -16.851690 -44.762437 2.075651 9.019672 25.858465 -0.044957 4.356425 0.707230 5.745849 -14.177408 -43.952911 0.000000 0.000000 0.000000 9.493145 9.234778 -3.072353 -6.500749 -14.896624 46.959805 -3.343817 23.654863 -34.774711 -2.433131 9.715280 -28.059663 -1.714997 -1.323556 -27.083801 2.364810 -1.313043 1.028219 3.061385 -0.719400 15.839042 -0.108020 -0.626868 0.295217 -0.301202 0.806965 20.163202 0.028838 0.980361 6.048924 0.000000 0.000000 0.000000 8.639001 12.124432 -13.001919 13.317393 -21.750286 2.569783 19.790376 -2.448893 10.703192 0.000000 0.000000 0.000000 -7.125000 0.000000 0.000000 -5.134944 18.647480 -3.236499 0.000000 0.000000 0.000000 -9.306831 9.897107 16.915778 -43.984793 -50.259794 -21.455663 -11.295852 -1.536174 55.903335 0.000000 0.000000 0.000000 7.125000 0.000000 0.000000 78.899785 75.992671 -64.433640
14.083350 16.553014 13.137459 178.352501 5.809043 -158.949087 0.000000 0.000000 0.000000 -5.913663 -17.192336 -45.366860 2.229134 9.326162 26.822374 -0.038407 3.674156 -0.125364 5.685138 -14.115702 -43.703816 0.000000 0.000000 0.000000 9.368734 9.182134 -3.115892 -6.527503 -14.920709 47.063834 -3.141688 23.952821 -33.945314 -2.528136 9.883915 -28.606016 -1.937427 -1.409009 -26.946225 2.352050 -1.380733 1.217061 3.145257 -0.781357 16.004347 -0.092097 -0.740281 0.091312 -0.147964 0.572683 19.979305 0.060888 0.859270 6.024359 0.000000 0.000000 0.000000 8.719823 11.388179 -12.836658 13.186934 -21.560525 2.521567 19.597691 -1.690304 10.617416 0.000000 0.000000 0.000000 -7.125000 0.000000 0.000000 -5.270005 18.752268 -3.309754 0.000000 0.000000 0.000000 -8.990318 9.299053 16.688400 -43.649348 -50.088889 -21.197737 -8.394531 -4.187031 54.562791 0.000000 0.000000 0.000000 7.125000 0.000000 0.000000 73.965086 74.756749 -58.280698
14.034560 16.534473 13.060029 178.384222 5.427015 -158.633346 0.000000 0.000000 0.000000 -6.080192 -17.499309 -45.993951 2.385911 9.626300 27.775919 -0.028573 3.010556 -0.856661 5.562173 -13.990127 -43.198039 0.000000 0.000000 0.000000 9.264073 9.172446 -3.153829 -6.550357 -14.941281 47.152660 -2.957647 24.157499 -33.165561 -2.810565 10.379863 -30.217807 -2.230892 -1.478162 -26.455001 2.320079 -1.386597 1.109460 3.305724 -0.811332 15.746499 -0.068184 -0.885656 -0.025310 0.052059 0.338118 20.050210 0.109050 0.761230 6.066181 0.000000 0.000000 0.000000 8.844147 11.059868 -12.892451 13.159610 -21.520616 2.511585 19.340039 -0.915593 10.386149 0.000000 0.000000 0.000000 -7.125000 0.000000 0.000000 -5.449353 19.014430 -3.391845 0.000000 0.000000 0.000000 -8.849390 9.702649 16.667852 -44.032080 -50.285313 -21.491630 -9.355239 -4.052999 53.999638 0.000000 0.000000 0.000000 7.125000 0.000000 0.000000 71.608564 74.991799 -56.322468
13.986231 16.520869 12.989334 178.414987 4.936273 -158.246913 0.000000 0.000000 0.000000 -6.183432 -17.884387 -46.753414 2.555407 9.937720 28.775456 -0.017117 2.378971 -1.425482 5.520180 -13.946509 -43.023942 0.000000 0.000000 0.000000 9.201068 9.071286 -3.288466 -6.564916 -14.954325 47.208877 -2.770306 24.237890 -32.325975 -3.051110 10.777288 -31.532422 -2.488995 -1.553181 -26.031582 2.187158 -1.398570 0.759909 3.481276 -0.859582 15.715823 -0.019580 -1.060575 -0.175372 0.318862 0.067513 20.250846 0.173470 0.659236 6.155421 0.000000 0.000000 0.000000 9.048599 10.857955 -13.245418 13.231960 -21.626153 2.538177 19.263235 -0.217117 10.145595 0.000000 0.000000 0.000000 -7.125000 0.000000 0.000000 -5.501410 19.272510 -3.392846 0.000000 0.000000 0.000000 -8.545363 9.996176 16.488574 -44.191340 -50.366086 -21.614178 -10.358095 -3.481441 54.679878 0.000000 0.000000 0.000000 7.125000 0.000000 0.000000 73.830568 75.511713 -58.997292
13.939002 16.512258 12.916186 178.488918 4.492423 -157.945968 0.000000 0.000000 0.000000 -6.233010 -18.185332 -47.360522 2.708227 10.206396 29.648371 -0.006593 1.812220 -1.826713 5.337091 -13.753330 -42.258881 0.000000 0.000000 0.000000 9.240817 9.070764 -3.309514 -6.561785 -14.951542 47.196874 -2.536073 24.338002 -31.257012 -3.006838 10.706140 -31.295058 -2.641381 -1.604585 -25.532240 2.166979 -1.434666 0.741644 3.528766 -0.884980 15.415226 -0.059764 -1.242012 -0.364115 0.555617 -0.203686 20.475859 0.243052 0.548948 6.260404 0.000000 0.000000 0.000000 9.182546 10.733489 -13.778247 13.420268 -21.899787 2.608020 19.350126 0.262307 10.022608 0.000000 0.000000 0.000000 -7.125000 0.000000 0.000000 -5.438525 19.395671 -3.338746 0.000000 0.000000 0.000000 -8.287212 9.958080 16.204763 -43.846732 -50.190651 -21.349156 -11.001735 -2.883813 55.438242 0.000000 0.000000 0.000000 7.125000 0.000000 0.000000 76.668844 75.869455 -62.115551
13.890475 16.505402 12.836476 178.620070 4.300266 -157.694614 0.000000 0.000000 0.000000 -6.269083 -18.309122 -47.730967 2.814051 10.387257 30.240676 0.001032 1.436585 -2.163399 4.992793 -13.372926 -40.786042 0.000000 0.000000 0.000000 9.331988 9.440801 -3.337735 -6.640364 -15.021314 47.500423 -2.393698 24.315357 -30.569823 -2.989269 10.677716 -31.200440 -2.646596 -1.499740 -25.098434 2.081416 -1.300398 0.760610 3.479974 -0.821267 15.175435 -0.053714 -1.405825 -0.483507 0.818007 -0.462143 20.623586 0.312864 0.449341 6.329452 0.000000 0.000000 0.000000 9.398814 10.561035 -14.403773 13.621012 -22.190129 2.683433 19.504156 0.403750 9.947380 0.000000 0.000000 0.000000 -7.125000 0.000000 0.000000 -5.328261 19.463977 -3.262367 0.000000 0.000000 0.000000 -7.991905 9.938980 15.999536 -43.523715 -50.024142 -21.101299 -16.045544 1.114688 57.313471 0.000000 0.000000 0.000000 7.125000 0.000000 0.000000 85.549133 77.707907 -72.936053
13.841388 16.502524 12.759517 178.701025 4.202896 -157.359726 0.000000 0.000000 0.000000 -6.345215 -18.436260 -48.081240 2.889313 10.513429 30.656131 0.007492 1.161428 -2.464409 4.789097 -13.141693 -39.902231 0.000000 0.000000 0.000000 9.290782 9.814456 -3.462057 -6.696726 -15.071066 47.717632 -2.238816 24.343349 -29.828600 -2.961646 10.632688 -31.050835 -2.663153 -1.346059 -25.171441 1.930258 -1.091590 1.016492 3.393464 -0.741087 15.505257 0.000318 -1.534585 -0.622291 1.120178 -0.737481 20.410849 0.382201 0.325351 6.287424 0.000000 0.000000 0.000000 9.683048 9.898207 -15.087900 13.795025 -22.440735 2.749503 20.017673 0.253946 9.997097 0.000000 0.000000 0.000000 -7.125000 0.000000 0.000000 -4.963589 19.374836 -3.046834 0.000000 0.000000 0.000000 -7.620530 9.538796 15.715214 -43.088820 -49.796370 -20.768720 -14.299125 -0.855817 57.639863 0.000000 0.000000 0.000000 7.125000 0.000000 0.000000 86.257076 77.134194 -72.984211
13.792661 16.504463 12.687048 178.721477 4.130095 -156.961290 0.000000 0.000000 0.000000 -6.491586 -18.545756 -48.468633 2.953832 10.619697 31.007988 0.014221 0.854592 -2.736745 4.718599 -13.059690 -39.592373 0.000000 0.000000 0.000000 9.096880 9.985605 -3.540454 -6.628166 -15.010166 47.452726 -1.983021 24.444441 -28.596555 -2.801873 10.363119 -30.164608 -2.758364 -1.241323 -25.052763 1.803230 -0.919673 1.103462 3.363954 -0.671676 15.525866 0.035529 -1.714501 -0.740524 1.324353 -1.033079 20.414692 0.424415 0.197193 6.311592 0.000000 0.000000 0.000000 9.900189 9.491801 -15.793792 14.044701 -22.797936 2.845799 20.491354 -0.140357 10.132628 0.000000 0.000000 0.000000 -7.125000 0.000000 0.000000 -4.628995 19.197070 -2.858472 0.000000 0.000000 0.000000 -7.334311 9.414676 15.579242 -42.733686 -49.608392 -20.497768 -10.671135 -4.206369 57.222880 0.000000 0.000000 0.000000 7.125000 0.000000 0.000000 83.945953 75.867158 -69.262244
